<svg width="800" height="420" version="1.1" viewBox="0 0 800 420" xmlns="http://www.w3.org/2000/svg" xmlns:cc="http://creativecommons.org/ns#" xmlns:dc="http://purl.org/dc/elements/1.1/" xmlns:rdf="http://www.w3.org/1999/02/22-rdf-syntax-ns#">
 <metadata>
  <rdf:RDF>
   <cc:Work rdf:about="">
    <dc:format>image/svg+xml</dc:format>
    <dc:type rdf:resource="http://purl.org/dc/dcmitype/StillImage"/>
    <dc:title/>
   </cc:Work>
  </rdf:RDF>
 </metadata>
 <g transform="translate(0,-180)">
  <path d="m628.4 216.7c-17.95-13.92-20.27-15.09-26.41-17.16-5.454-1.842-50.65 12.54-69.76 22.34-25.11 16.28-42.56 22.94-68.07 30.44 9.031 3.77 18.06 6.427 27.09 4.209-15.68 16.45-32.74 36.66-40.3 58.28 7.276-6.048 10.42-9.771 32.17-23.96-12.28 36.59-25.49 73.18-26.41 109.8l36.57-43.71c-6.234 19.37-18.32 54.04-9.482 104.6 8.747-19.07 9.874-19.23 14.22-26.23 10.78 42.98 20.84 77.57 50.46 114.3 1.787-9.893 3.442-19.53 6.096-31.08 10.21 30 19.45 44.4 28.79 60.23 4.896-23.11 6.856-27.51 9.144-34 12.08 15.3 19.75 31.45 27.43 47.6 16.49-35.74 26.43-46.52 55.88-136.6l5.418 35.62c8.829-21.15 15.86-28.93 21.33-110.1l17.61 28.49c2.145-20.83 3.308-32.06 0.3386-76.09l11.18 8.095c-7.008-17.06-5.582-26.06-26.41-56.34 3.116 0.4102 8.485 0.9999 22.35 2.267 0 0-42.64-63.83-77.55-74.47-6.984-2.129-21.67 3.562-21.67 3.562z" style="fill-rule:evenodd;fill:#f56010;stroke-width:1.641;stroke:#000"/>
  <path d="m678.7 331.5c7.801 4.965 6.478 16.03 4.965 20.57s-13.48 4.965-13.48 4.965" style="fill-rule:evenodd;fill:#fff0bf;stroke-width:1.6;stroke:#000"/>
  <path d="m674.1 312 3.645 28.72c-12.22 45.98-45.44 53.21-75.22 53.19-32.1-0.023-68.15-15.6-81.01-57.45l0.0982-32.98" style="fill-rule:evenodd;fill:#fff0bf"/>
  <path d="m575.5 384-6.49 38.5-2.533 26.76 1.279 11.7 33.08 1.378 27.56 2.522 1.064-3.546-1.039-29.29-3.926-28.16-1.074-17.67z" style="fill-rule:evenodd;fill:#fff0bf"/>
  <path d="m614.9 454.6c25.09 47.55 41.32 77 86.88 74.11" style="fill:none;stroke-width:1.991;stroke:#000"/>
  <path d="m572.6 403.6c-3.554 16.21-5.94 36.97-5.699 36.97" style="fill:none;stroke-width:1.7;stroke:#000"/>
  <path d="m624.9 405.3 3.987 30.58" style="fill:none;stroke-width:1.7;stroke:#000"/>
  <path d="m521.5 336.5c12.86 41.84 48.91 57.42 81.01 57.45 29.78 0.0213 63-7.213 75.22-53.19" style="fill:none;stroke-width:1.952;stroke:#000"/>
  <path d="m521.3 335.8c-7.801 7.092-8.511 13.48-0.7092 16.31s9.929 0.7092 9.929 0.7092" style="fill-rule:evenodd;fill:#fff0bf;stroke-width:1.6;stroke:#000"/>
  <path d="m559.1 303.8c6.383 35.46 36.88 62.77 36.88 62.77 16.58-29.58 19.44-31.76 24.82-60.64" style="fill-rule:evenodd;fill:#f56010;stroke-width:1.757;stroke:#000"/>
  <path d="m515.5 289.4 45.39 21.28 60.46 11.88 39.54-6.56 13.83-18.79-15.6-11.52-125.4-4.965z" style="fill-rule:evenodd;fill:#f56010"/>
  <path d="m657.3 316.5 19.86 42.55c-0.0489-14.49 5.157-46.77-2.837-72.34" style="fill-rule:evenodd;fill:#f56010;stroke-width:1.757;stroke:#000"/>
  <path d="m562.6 310.1c-18.44 28.37-30.5 63.83-30.5 63.83-13.01-38.28-13.8-70.31-9.929-85.11" style="fill-rule:evenodd;fill:#f56010;stroke-width:1.757;stroke:#000"/>
  <path d="m571.6 450.5c0.4192 11.04-1.733 23.97-2.948 27.17 0 0-7.909 10.53-8.94 15.76-1.031 5.229-4.569 18.19 0.3849 22.22 4.954 4.027 16.94 4.683 20.08 1.233 3.148-3.45 8.695-16.94 10.3-23.63 1.6-6.691-1.509-16.23-1.509-16.23 1.635-9.303 2.855-13.96 5.309-24.22" style="fill-rule:evenodd;fill:#fff0bf;stroke-width:1.9;stroke:#000"/>
  <path d="m624.3 446.4c1.679 9.017 0.1828 23.06 4.045 29.69 0 0 8.779 10.33 9.982 15.5 1.203 5.169 5.254 17.97-0.0835 22.02-5.338 4.057-18.39 4.866-21.87 1.489-3.483-3.377-9.733-16.67-11.58-23.28-1.845-6.611 1.399-16.11 1.399-16.11-1.923-9.2-3.323-13.79-6.152-23.93" style="fill-rule:evenodd;fill:#fff0bf;stroke-width:1.9;stroke:#000"/>
  <path d="m738.2 508.3c0.1514-5.716 7.39-13.76 22.07-22.47-12.41-3.321-31.7-1.555-42.83 5.686-12.47 8.111-23.91 25.16-20.94 36.27 1.602 5.982 11.83 11.84 18.79 13.26 12.4 2.524 19.19-2.149 25.24-12.66 6.039-10.5 9.531-18.9 12.01-20.05 1.733-0.8027-14.34-0.0279-14.34-0.0279z" style="fill-rule:evenodd;fill:#ff1d20;stroke-width:2.091;stroke:#000"/>
  <path d="m509.2 216.4c15.6 30.85 28.75 53.18 41.84 58.87 15.3 6.642 96.46 6.804 112.8-9.22 17.78-17.47 26.6-25.53 26.6-25.53-6.703-1.169-17.57-14.32-30.5-18.09-13.1-3.818-57.09-1.064-75.53 0.3546-18.44 1.418-37.94 4.61-45.39 4.61-7.447 0-29.79-10.99-29.79-10.99z" style="fill-rule:evenodd;fill:#127a0a;stroke-width:1.757;stroke:#000"/>
  <path d="m532.3 238.7c22.12 22.17 107.4 11.11 122.3 7.801 16.06-3.561 25.89-1.064 39.36-7.447 13.48-6.383 37.23-19.5 37.23-19.5" style="fill:none;stroke-width:2.513;stroke:#000"/>
  <path d="m581.2 411.3c-3.789-6.946-4.285-10.96-4.285-10.96 1.673-4.218 2.809-7.299 12.8-5.694 3.006 2.297 6.766 8.674 3.157 14.08l-4.42 1.229-1.894 7.262z" style="fill-rule:evenodd;fill:#ff1d20;stroke-width:1.457;stroke:#000"/>
  <path d="m596 409.1c-0.4966-2.383-2.749-5.421-0.1308-12.09 4.901-4.51 8.805-2.673 12.47-1.263 1.894 7.683-2.834 11.06-2.21 11.52l-2.21 2.052-2.21 6.315s-1.894-1.579-5.71-6.543z" style="fill-rule:evenodd;fill:#ff1d20;stroke-width:1.457;stroke:#000"/>
  <path d="m607.1 410.8c-0.8844-5.363 1.429-18.57 10.93-14.69 2.619 4.056 2.536-3.061 2.526 11.84l-6.157 1.105s-5.21 8.209-5.21 5.999-2.091-4.256-2.091-4.256z" style="fill-rule:evenodd;fill:#ff1d20;stroke-width:1.457;stroke:#000"/>
  <path d="m620.4 392.9c-0.4201 1.391-1.066 2.501-1.966 3.452" style="fill:none;stroke-linecap:round;stroke-width:1.757;stroke:#000"/>
  <path d="m577.2 390.9c0.0902 2.784 1.218 3.387 2.5 4.608" style="fill:none;stroke-linecap:round;stroke-width:1.757;stroke:#000"/>
  <path d="m41.13 190.4v217.7h360v-60.88l47.18 1.162-47.18-26.11v-131.9z" style="fill:#fffaeb;stroke-linecap:round;stroke-linejoin:bevel;stroke-width:2.424;stroke:#000"/>
  <path d="m564.4 434.5-17.02 28.72 12.06-3.191 3.191 10.99 17.73-3.546 7.447 4.61 10.28-6.028 15.6 10.99 8.511-8.865 12.77 4.255 3.191-10.28 11.35 0.7092-17.38-29.79-7.801 4.255h-7.092l-12.41 4.61-18.79 0.3546c-0.5814-1.182-14.18-8.156-14.18-8.156z" style="fill-rule:evenodd;fill:#16a30b;stroke-width:1.8;stroke:#000"/>
  <text x="180.35104" y="227.00121" style="fill:#000000;font-family:sans-serif;font-size:37.33px;letter-spacing:0px;line-height:200px;stroke-width:1px;word-spacing:0px" xml:space="preserve"><tspan x="180.35104" y="227.00121">404</tspan></text>
  <text x="52.971531" y="268.12372" style="fill:#000000;font-family:sans-serif;font-size:29.33px;letter-spacing:0px;line-height:200px;stroke-width:1px;word-spacing:0px" xml:space="preserve"><tspan x="52.971531" y="268.12372">ごめんね、</tspan></text>
  <text x="53.473026" y="301.72385" style="fill:#000000;font-family:sans-serif;font-size:29.33px;letter-spacing:0px;line-height:200px;stroke-width:1px;word-spacing:0px" xml:space="preserve"><tspan x="53.473026" y="301.72385">ページが見つかりません</tspan></text>
  <text x="53.473022" y="347.86133" style="fill:#000000;font-family:sans-serif;font-size:29.33px;letter-spacing:0px;line-height:200px;stroke-width:1px;word-spacing:0px" xml:space="preserve"><tspan x="53.473022" y="347.86133">Sorry,</tspan></text>
  <text x="51.96854" y="382.96591" style="fill:#000000;font-family:sans-serif;font-size:29.33px;letter-spacing:0px;line-height:200px;stroke-width:1px;word-spacing:0px" xml:space="preserve"><tspan x="51.96854" y="382.96591">Page not found.</tspan></text>
  <path d="m587.1 385.5c4.012-11.53 4.513-17.55 4.513-17.55 4.012-0.1672 8.024-0.3343 12.04-0.5015 2.814 7.676 5.043 14.3 6.519 19.31-7.281-2.602-11.56-3.982-23.07-1.254z" style="fill-rule:evenodd;fill:#ffbfcf;stroke-width:1.7;stroke:#000"/>
  <path d="m616.9 321.8c29.79 40.43 39.72 58.87 39.72 58.87 2.365-21.98 3.948-44.75 0.7092-72.34" style="fill-rule:evenodd;fill:#f56010;stroke-width:1.757;stroke:#000"/>
  <path d="m737.4 322.8s24.77 16.88 38.29 12.59c12.29-3.895 7.47-15.84-3.95-20.82-11.42-4.983-34.34 8.232-34.34 8.232z" style="fill-rule:evenodd;fill:#c4e0e8;stroke-width:1.29;stroke:#000"/>
  <path d="m752.5 345s8.785 28.66 22.01 33.76c12.02 4.642 15.73-7.693 9.937-18.72-5.797-11.03-31.94-15.04-31.94-15.04z" style="fill-rule:evenodd;fill:#c4e0e8;stroke-width:1.29;stroke:#000"/>
  <path d="m619.1 363.5c5.434 18.28 3.064 29.11 3.31 38.01 0.3486 12.61 13.52 6.499 19.8-0.491 14.72-16.39 18.67-53.32 10.84-60.47-8.72-7.961-40.41 1.226-33.95 22.95z" style="fill-rule:evenodd;fill:#fff0bf;stroke-width:1.9;stroke:#000"/>
  <path d="m545.6 339.3c-10.83 15.38-5.17 47.58 5.964 61.71 6.988 8.869 25.63 10.71 22.57-8.14-1.534-9.454-0.4136-28.36 4.516-44.04 3.033-9.647-26.85-14.87-33.05-9.531z" style="fill-rule:evenodd;fill:#fff0bf;stroke-width:1.9;stroke:#000"/>
 </g>
</svg>
